<svg width="100" height="100" viewBox="0 0 100 100" fill="none" xmlns="http://www.w3.org/2000/svg">
<path d="M50 0V2.17391V73.9131L100 54.3478L50 0Z" fill="#F95700" fill-opacity="0.25"/>
<path d="M49.9618 0L0 54.3478L49.9618 73.9131V39.1304V0Z" fill="#F95700" fill-opacity="0.75"/>
<path d="M50.3817 74.6377V98.5508V100L100 55.0725L50.3817 74.6377Z" fill="#F95700" fill-opacity="0.5"/>
<path d="M49.6183 74.6377V98.5508V100L-3.59589e-05 55.0725L49.6183 74.6377Z" fill="#F95700" fill-opacity="0.75"/>
<path d="M50 73.913L100 54.3478L50 39.855V73.913Z" fill="#F95700" fill-opacity="0.5"/>
<path d="M0 54.3478L50 73.913V39.855L0 54.3478Z" fill="#F95700" fill-opacity="0.5"/>
<path fill-rule="evenodd" clip-rule="evenodd" d="M37.4089 31.2633L35.0394 31L34.743 31.5927C34.3688 32.3412 34.096 33.1362 33.9319 33.9568L33.8923 34.1549C33.797 34.6311 33.7491 35.1156 33.7491 35.6012C33.7491 36.5395 33.9281 37.4691 34.2765 38.3402L34.5605 39.0502C32.4207 41.3913 31.1684 44.5467 31.1684 48.6344C31.1684 56.5865 36.7678 61.4814 44.5168 63.0957C44.4341 63.213 44.3722 63.3463 44.3362 63.49C44.1605 64.1929 44.0716 64.9148 44.0716 65.6393V66.2688V66.4839L44.012 66.5137C43.7653 66.637 43.5102 66.7427 43.2485 66.8299C42.6542 67.028 42.0318 67.129 41.4053 67.129H41.3729C40.88 67.129 40.389 67.0686 39.9108 66.949L39.6633 66.8872C39.1628 66.7621 38.6776 66.5825 38.2162 66.3518L38.006 66.2467C37.4655 65.9765 36.9721 65.6209 36.5448 65.1936L36.4537 65.1025C36.0867 64.7355 35.7813 64.3117 35.5492 63.8475C35.2139 63.177 34.7272 62.5938 34.1275 62.144L33.9529 62.0131C33.5345 61.6993 33.0576 61.4723 32.5502 61.3455C31.9254 61.1892 31.2717 61.1892 30.6468 61.3455L30.0632 61.4914C29.9921 61.5091 29.9771 61.6037 30.0381 61.6443C30.7783 62.1378 31.4225 62.779 31.916 63.5192L32.0286 63.6882L32.8718 64.8125C33.168 65.2073 33.3985 65.6473 33.5546 66.1155C33.6837 66.5027 33.8638 66.871 34.0902 67.2106L34.2436 67.4407C34.4868 67.8055 34.7654 68.1454 35.0754 68.4554L35.4695 68.8495L35.5845 68.9645C36.0781 69.4581 36.648 69.8688 37.2723 70.181C37.7885 70.4391 38.3369 70.6273 38.9029 70.7405L39.2865 70.8172C39.8945 70.9388 40.5129 71 41.1329 71H41.9211C42.6487 71 43.3723 70.9001 44.0716 70.7037V74.871V76.1613V76.3112C44.0716 76.3523 44.0804 76.3912 44.0963 76.4263C44.3838 77.965 47.1515 79.172 50.5232 79.172C54.0864 79.172 56.9749 77.8241 56.9749 76.1613C56.9749 76.09 56.9695 76.0168 56.9591 75.9422C56.9695 75.8553 56.9749 75.7674 56.9749 75.679V74.871V70.1398V66.2688V65.6393C56.9749 64.9148 56.886 64.1929 56.7103 63.49C56.6779 63.3604 56.6244 63.2394 56.5535 63.1309C64.2902 61.6074 69.8781 56.9237 69.8781 48.6344C69.8781 44.881 68.6306 41.8087 66.4984 39.441L66.7659 38.7372C67.1173 37.8124 67.2974 36.8314 67.2974 35.8421C67.2974 35.3316 67.2495 34.8223 67.1542 34.3208L67.1156 34.1176C66.9508 33.2501 66.6755 32.4072 66.2967 31.6096L66.0071 31L63.6727 31.273C62.657 31.3918 61.672 31.697 60.7672 32.1733C59.9648 32.5956 59.2369 33.1463 58.6124 33.8037L57.9413 34.5101C55.6568 33.8926 53.1512 33.5806 50.5232 33.5806C47.9132 33.5806 45.4238 33.8371 43.1518 34.3812L42.4629 33.6924C41.8192 33.0486 41.0759 32.5129 40.2616 32.1057C39.3678 31.6588 38.402 31.3736 37.4089 31.2633Z" fill="white"/>
</svg>
