<svg width="100" height="100" viewBox="0 0 100 100" fill="none" xmlns="http://www.w3.org/2000/svg">
<path d="M50 0V2.17391V73.9131L100 54.3478L50 0Z" fill="#F95700" fill-opacity="0.25"/>
<path d="M49.9618 0L0 54.3478L49.9618 73.9131V39.1304V0Z" fill="#F95700" fill-opacity="0.75"/>
<path d="M50.3817 74.6377V98.5508V100L100 55.0725L50.3817 74.6377Z" fill="#F95700" fill-opacity="0.5"/>
<path d="M49.6183 74.6377V98.5508V100L-3.59589e-05 55.0725L49.6183 74.6377Z" fill="#F95700" fill-opacity="0.75"/>
<path d="M50 73.913L100 54.3478L50 39.855V73.913Z" fill="#F95700" fill-opacity="0.5"/>
<path d="M0 54.3478L50 73.913V39.855L0 54.3478Z" fill="#F95700" fill-opacity="0.5"/>
<path fill-rule="evenodd" clip-rule="evenodd" d="M38.8 35.625C38.8 38.7316 36.3824 41.25 33.4 41.25C30.4177 41.25 28 38.7316 28 35.625C28 32.5184 30.4177 30 33.4 30C36.3824 30 38.8 32.5184 38.8 35.625ZM28.9 45H37.9V75H28.9V45ZM52.2999 45H43.2999V75H52.2999V45ZM63.1001 44.5313L65.1245 44.9999C66.4546 45.3078 67.689 45.9367 68.72 46.8316C69.4674 47.4804 70.0937 48.2567 70.5697 49.1244L70.8388 49.615C71.3767 50.5956 71.7685 51.6495 72.0019 52.7433L72.1988 53.6665C72.4324 54.7614 72.5629 55.8759 72.5885 56.9952L73 75H63.1V58.1245L62.8771 56.9635C62.7268 56.1808 62.447 55.4287 62.0492 54.7381C61.57 53.9061 60.7768 53.3012 59.8476 53.0592L59.0921 52.8625C58.1845 52.6261 57.2272 52.6642 56.3412 52.9718C55.4663 53.2756 54.6995 53.8289 54.1353 54.5634L53.7879 55.0159C53.398 55.5235 53.0835 56.0847 52.8541 56.6822L52.3 58.125V52.233C52.3 50.5852 52.8609 48.9865 53.8902 47.6998C54.3278 47.1528 54.8423 46.6721 55.4176 46.2725L55.5861 46.1555C56.6807 45.3954 57.9357 44.898 59.2538 44.7018L60.4001 44.5312L61.7501 44.4844L63.1001 44.5312V44.5313Z" fill="white"/>
</svg>
