<svg width="100" height="100" viewBox="0 0 100 100" fill="none" xmlns="http://www.w3.org/2000/svg">
<path d="M50 0V2.17391V73.9131L100 54.3478L50 0Z" fill="#F95700" fill-opacity="0.25"/>
<path d="M49.9618 0L0 54.3478L49.9618 73.9131V39.1304V0Z" fill="#F95700" fill-opacity="0.75"/>
<path d="M50.3817 74.6377V98.5508V100L100 55.0725L50.3817 74.6377Z" fill="#F95700" fill-opacity="0.5"/>
<path d="M49.6183 74.6377V98.5508V100L-3.59589e-05 55.0725L49.6183 74.6377Z" fill="#F95700" fill-opacity="0.75"/>
<path d="M50 73.913L100 54.3478L50 39.855V73.913Z" fill="#F95700" fill-opacity="0.5"/>
<path d="M0 54.3478L50 73.913V39.855L0 54.3478Z" fill="#F95700" fill-opacity="0.5"/>
<path fill-rule="evenodd" clip-rule="evenodd" d="M69.1926 45.8176C69.5346 57.6174 58.156 84.5085 26 70.4118C26 70.1153 26.2198 70.1222 26.8138 70.1411C27.8906 70.1753 30.1974 70.2485 34.6535 68.6223C34.208 68.2335 33.7959 67.8072 33.4218 67.3479C32.6099 66.3508 31.9892 65.2123 31.591 63.9896L31.1983 62.7841C31.1813 62.7318 31.2253 62.68 31.2796 62.6883L32.8956 62.9364C33.843 63.0818 34.8031 63.0184 35.7114 62.7591L35.0998 62.4253C33.8574 61.7472 32.7228 60.8877 31.7335 59.8753L31.5049 59.6413C30.5935 58.7085 29.8372 57.636 29.2647 56.4643C28.8105 55.5345 28.4761 54.5507 28.2697 53.5367L27.5853 50.1746C27.5691 50.0954 27.6462 50.0292 27.7221 50.0572L32.3748 51.7713C32.2451 51.431 32.1272 51.1051 32.0208 50.7933C31.573 50.0871 31.1882 49.341 30.8727 48.5659C30.3722 47.3367 30.0479 46.0374 29.9135 44.717C29.707 42.6884 29.9482 40.6391 30.6201 38.7138L31.0875 37.3744C31.1141 37.2982 31.214 37.2806 31.265 37.3432L33.729 40.3692L36.3097 42.9046L37.268 43.7873C37.8465 44.3201 38.4644 44.8079 39.1165 45.2464C39.536 45.3468 39.9647 45.4519 40.4009 45.5589C43.3482 46.2813 46.6316 47.0862 49.6481 47.0862C48.8741 35.6341 60.3367 33.5791 66.0508 38.5201C66.914 38.4616 67.759 38.2354 68.5381 37.8527L69.729 37.2677L72.3097 36C71.8588 37.6611 71.1322 39.2427 70.1693 40.6657L70.9033 40.4854L74 39.2177L73.4973 40.2466C72.8043 41.6652 71.8983 42.9694 70.811 44.114L69.1926 45.8176Z" fill="white"/>
</svg>
